<?xml version="1.0" standalone="no"?>
<!DOCTYPE svg PUBLIC "-//W3C//DTD SVG 20010904//EN"
  "http://www.w3.org/TR/2001/REC-SVG-20010904/DTD/svg10.dtd">
<svg width="96" height="96">
<g style="" transform="scale(0.999265,0.999584)">
<g style="" transform="scale(0.999265,0.999584)">
  <path d="M93.559 563.937C2.053 544.058-31.337 429.287 35.09 362.967c38.187-38.126 115.469-48.34 115.469-15.261 0 14.844-5.766 18.833-26.486 18.326-58.026-1.419-99.905 47.905-86.447 101.815 23.924 95.835 160.817 77.93 162.123-21.206.481-36.52 33.486-44.629 37.284-9.16 8.41 78.525-65.251 143.448-143.474 126.456zm328.8.547c-56.363-11.84-93.823-58.22-94.08-116.484-.106-24.142 3.436-30.42 17.77-31.491 14.733-1.102 18.901 5.27 19.261 29.449.873 58.674 51.997 98.597 105.049 82.031 93.046-29.053 69.378-166.178-27.936-161.85-19.296.858-27.09-3.953-28.168-17.39-2.614-32.561 72.75-25.24 112.751 10.954 89.373 80.864 13.379 229.573-104.647 204.78zm14.775-98.09c-2.765-1.538-11.731-10.082-19.933-18.994C311.12 332.12 265.25 330.524 157.76 438.374c-29.09 29.186-33.949 31.96-46.539 26.574-19.568-8.373-16.115-25.154 10.135-49.25C234.79 311.571 236.303 265.767 129.823 159.5c-15.34-15.31-27.667-28.607-28.61-30.861-6.182-14.797 2.822-28.685 18.538-28.592 11.02.064 10.883-.036 43.075 31.826 103.45 102.392 140.484 102.134 244.532-1.703 15.18-15.148 29.337-28.27 31.462-29.157 17.134-7.159 33.028 8.287 27.946 27.158-1.25 4.64-5.114 9.08-29.236 33.588-105.511 107.2-103.85 149.647 10.056 256.82 16.923 15.924 18.94 18.701 19.984 27.52 2.07 17.467-15.023 28.863-30.436 20.294zM95.359 237.433C-9.192 214.737-34.86 79.905 54.024 20.302 133.154-32.76 238.157 24.336 238.11 120.4c-.012 24.17-3.554 30.422-17.842 31.49-14.744 1.103-18.953-5.329-19.297-29.489-1.096-76.97-86.494-114.46-139.735-61.345-53.538 53.412-16.96 140.1 59.471 140.946 24.231.268 30.23 3.645 31.355 17.648 1.42 17.698-22.516 25.205-56.704 17.783zm334.347 1.163c-9.564-2.258-15.046-10.02-14.119-19.99 1.254-13.485 6.504-16.677 26.68-16.222 67.27 1.517 108.265-61.174 78.987-120.789-38.366-78.118-153.755-48.178-154.702 40.14-.392 36.526-33.468 44.667-37.269 9.174C314.713-5.137 507.45-51.139 559.68 75.92c33.413 81.282-47.228 182.214-129.974 162.677z"/>
</g>
</g>
</svg>
